<!DOCTYPE svg PUBLIC "-//W3C//DTD SVG 1.1//EN" "http://www.w3.org/Graphics/SVG/1.1/DTD/svg11.dtd">
<!-- Uploaded to: SVG Repo, www.svgrepo.com, Transformed by: SVG Repo Mixer Tools -->
<svg version="1.1" id="_x32_" xmlns="http://www.w3.org/2000/svg" xmlns:xlink="http://www.w3.org/1999/xlink" width="800px" height="800px" viewBox="0 0 512 512" xml:space="preserve" fill="#000000">
<g id="SVGRepo_bgCarrier" stroke-width="0"/>
<g id="SVGRepo_tracerCarrier" stroke-linecap="round" stroke-linejoin="round"/>
<g id="SVGRepo_iconCarrier"> <style type="text/css">  .st0{fill:#04543d;}  </style> <g> <path class="st0" d="M13.234,126.828c-2.813-1.453-6.172-1.328-8.891,0.313C1.656,128.781,0,131.719,0,134.891 c0,0,0,166.438,0,257.109c159.75,101.844,319.5-82.297,479.25-17.047c10.922,4.453,19.5,10.141,19.5,10.141 c2.813,1.453,6.172,1.344,8.875-0.297c2.719-1.641,4.375-4.578,4.375-7.75c0,0,0-166.391,0-257.047 C352.656,18.406,193.281,201.391,33.938,137.516C22.625,132.984,13.234,126.828,13.234,126.828z M32,330.547 c0-38.563,0-77.109,0-115.656c22.969,5.594,40.844-11.078,43.188-34.016c44.313,7.016,88.625-1.516,132.938-14.156 c-30.016,29.047-50.313,71.172-50.313,115.969c0,44.734,20.281,80.344,50.297,92.031c-44.297,12.656-88.609,21.172-132.922,14.156 C72.844,364.938,54.969,343.875,32,330.547z M287.969,228.125c-1.109,5.656-2.203,11.313-3.313,16.969 c-18.156,5.578-36.344,11.578-54.516,17.188c-0.063,0.953-0.094,1.859-0.109,2.781c0,2.281,0.203,4.531,0.594,6.766 c17.344-5.359,34.703-11.063,52.063-16.422c-1.094,5.656-2.188,11.328-3.281,16.984c-14.188,4.406-28.375,9.016-42.563,13.469 c7.75,9.656,20.969,12.688,35.469,8.125c4.906-1.531,9.844-4.016,14.656-7.234c1.281-0.859,2.563-1.734,3.844-2.594 c0,7.484,0,14.969,0,22.469l-2.109,1.188c-5.391,3.094-10.906,5.547-16.391,7.266c-26.094,8.313-49.563-0.422-59.016-22.047 c-4.5,1.313-9,2.594-13.5,3.813c0-5.328,0-10.641,0-15.969c3.203-0.875,6.391-1.766,9.578-2.688 c-0.297-2.375-0.438-4.578-0.438-6.828c0-0.906,0.031-1.844,0.063-2.766c-3.063,0.891-6.125,1.75-9.203,2.578 c0-5.328,0-10.641,0-15.969c4.016-1.094,8.016-2.219,12.047-3.391c8.188-28.656,32.734-54.625,60.469-63.484 c7.375-2.344,14.594-3.266,21.531-2.797c0.75,0.063,1.531,0.109,2.297,0.156c-1.438,7.469-2.875,14.953-4.313,22.438 c-1.078-0.141-2.141-0.266-3.219-0.391c-5.266-0.641-10.75-0.063-16.297,1.703c-16.031,5.063-30.75,19.094-37.844,35.531 C252.313,239.406,270.125,233.531,287.969,228.125z M303.875,137.266c44.297-12.625,88.594-21.156,132.906-14.156 c2.344,23.938,20.25,44.938,43.219,58.297c0,38.563,0,77.109,0,115.672c-22.969-5.578-40.875,11.063-43.219,34.031 c-44.313-7-88.594,1.516-132.891,14.156c30.016-29.047,50.297-71.203,50.297-115.969 C354.188,184.578,333.906,148.984,303.875,137.266z"/> <path class="st0" d="M125.125,273.063c-7.594,0.516-13.75,6.734-13.75,14.313c0,7.594,6.156,13.719,13.75,13.188 c7.594-0.516,13.75-7.438,13.75-15.047C138.875,277.922,132.719,272.547,125.125,273.063z"/> <path class="st0" d="M386.875,238.938c7.594-0.516,13.75-6.75,13.75-14.328c0-7.609-6.156-13.734-13.75-13.172 c-7.594,0.531-13.75,7.453-13.75,15.031C373.125,234.063,379.281,239.484,386.875,238.938z"/> </g> </g>
</svg>